<svg xmlns="http://www.w3.org/2000/svg" viewBox="0 0 32 32" width="32" height="32">
  <defs>
    <linearGradient id="g" x1="0%" y1="0%" x2="100%" y2="100%">
      <stop offset="0%" style="stop-color:#4285f4"/>
      <stop offset="100%" style="stop-color:#a142f4"/>
    </linearGradient>
  </defs>
  <!-- Four-pointed Gemini star -->
  <path d="M16 2 C16 2, 17.5 10, 16 16 C14.5 10, 16 2, 16 2Z" fill="url(#g)"/>
  <path d="M30 16 C30 16, 22 17.5, 16 16 C22 14.5, 30 16, 30 16Z" fill="url(#g)"/>
  <path d="M16 30 C16 30, 14.5 22, 16 16 C17.5 22, 16 30, 16 30Z" fill="url(#g)"/>
  <path d="M2 16 C2 16, 10 14.5, 16 16 C10 17.5, 2 16, 2 16Z" fill="url(#g)"/>
</svg>
